<?xml version="1.0" encoding="iso-8859-1"?>
<!-- Generator: Adobe Illustrator 18.0.0, SVG Export Plug-In . SVG Version: 6.00 Build 0)  -->
<!DOCTYPE svg PUBLIC "-//W3C//DTD SVG 1.1//EN" "http://www.w3.org/Graphics/SVG/1.1/DTD/svg11.dtd">
<svg version="1.1" xmlns="http://www.w3.org/2000/svg" xmlns:xlink="http://www.w3.org/1999/xlink" x="0px" y="0px"
	 viewBox="0 0 48 48" style="enable-background:new 0 0 48 48;" xml:space="preserve">
<g id="Layer_401">
	<g>
		<path style="fill:#FE3432;" d="M48,1c0-0.551-0.451-1-1-1c0,0-22.731,0-22.999,0C10.746,0,0,10.744,0,23.998
			C0,37.254,10.746,48,24.001,48C37.254,48,48,37.254,48,23.998C48,23.731,48,1,48,1z"/>
		<g>
			<g id="Lozenge_23_">
				<g>
					<path style="fill:#FFFFFF;" d="M38.699,19.745c0,0-0.293-2.157-1.191-3.106c-1.141-1.244-2.42-1.252-3.004-1.324
						C30.303,15,24.008,15,24.008,15h-0.014c0,0-6.299,0-10.496,0.316c-0.586,0.071-1.863,0.079-3.006,1.324
						c-0.898,0.949-1.191,3.106-1.191,3.106S9,22.276,9,24.808v2.372c0,2.533,0.301,5.065,0.301,5.065s0.293,2.155,1.191,3.104
						c1.143,1.246,2.643,1.206,3.309,1.336C16.201,36.925,24,37,24,37s6.303-0.012,10.504-0.326
						c0.584-0.073,1.863-0.079,3.004-1.326c0.898-0.949,1.191-3.104,1.191-3.104S39,29.713,39,27.18v-2.372
						C39,22.276,38.699,19.745,38.699,19.745z M20.904,30.058l-0.002-8.789l8.105,4.411L20.904,30.058z"/>
				</g>
			</g>
		</g>
	</g>
</g>
<g id="Layer_1">
</g>
</svg>
