<?xml version="1.0" encoding="iso-8859-1"?>
<!-- Generator: Adobe Illustrator 18.0.0, SVG Export Plug-In . SVG Version: 6.00 Build 0)  -->
<!DOCTYPE svg PUBLIC "-//W3C//DTD SVG 1.1//EN" "http://www.w3.org/Graphics/SVG/1.1/DTD/svg11.dtd">
<svg version="1.1" xmlns="http://www.w3.org/2000/svg" xmlns:xlink="http://www.w3.org/1999/xlink" x="0px" y="0px"
	 viewBox="0 0 48 48" style="enable-background:new 0 0 48 48;" xml:space="preserve">
<g id="Layer_380">
	<g>
		<path style="fill:#E3AC3C;" d="M48,1.26C48,0.714,47.207,0,46.662,0c0,0-22.568,0-22.834,0C10.668,0,0,10.834,0,24.033
			C0,37.234,10.841,48,24.001,48C37.159,48,48,37.366,48,24.165C48,23.899,48,1.26,48,1.26z"/>
		<g>
			<rect x="9" y="18" style="fill:#FFFFFF;" width="2.914" height="12"/>
			<polygon style="fill:#FFFFFF;" points="15.998,23.264 17.235,30 19.035,30 20.238,23.264 20.238,30 22.727,30 22.727,18 
				18.776,18 18.1,23.66 17.123,18 13.373,18 13.373,30 15.998,30 			"/>
			<path style="fill:#FFFFFF;" d="M27.525,18h-3.26v12h3.277c1.863,0,2.488-0.207,3.006-0.623c0.519-0.416,0.779-0.998,0.779-1.745
				v-7.263c0-0.804-0.277-1.4-0.832-1.787C29.94,18.194,29.469,18,27.525,18z M28.199,27.483c0,0.567-0.629,0.491-1.127,0.491
				v-8.059c0.498,0,1.127-0.054,1.127,0.531V27.483z"/>
			<path style="fill:#FFFFFF;" d="M37.195,19.915c-0.812-0.038-1.65,0.492-1.951,0.832V18h-2.982v12h2.408
				c0,0,0.184-0.715,0.387-0.625c0.205,0.089,1.238,0.529,1.951,0.529c0.713,0,1.006-0.047,1.348-0.196
				c0.426-0.286,0.641-0.673,0.641-1.163v-6.979C39.07,20.558,38.008,19.952,37.195,19.915z M36.063,27.927
				c0,0.295-0.135,0.501-0.404,0.501c-0.277,0-0.416-0.206-0.416-0.501l0.002-6.062c0-0.284,0.139-0.426,0.414-0.426
				c0.271,0,0.408,0.148,0.408,0.444L36.063,27.927z"/>
		</g>
	</g>
</g>
<g id="Layer_1">
</g>
</svg>
